<svg id="Layer_1" data-name="Layer 1" xmlns="http://www.w3.org/2000/svg" width="179" height="44" viewBox="0 0 179 44">
  <defs>
    <style>
      .cls-1 {
        fill: blue;
      }
    </style>
  </defs>
  <title>Untitled-6</title>
  <g>
    <path d="M8.92,12.82H3V10.67H17.45v2.15h-6V30.23H8.92Z"/>
    <path d="M18.89,23.67c.06,3.45,2.26,4.87,4.82,4.87a9.27,9.27,0,0,0,3.88-.72L28,29.65a11.49,11.49,0,0,1-4.67.87c-4.32,0-6.9-2.85-6.9-7.08S19,15.87,23,15.87c4.58,0,5.8,4,5.8,6.61a9.35,9.35,0,0,1-.09,1.19Zm7.49-1.83c0-1.62-.67-4.15-3.54-4.15-2.58,0-3.72,2.38-3.92,4.15Z"/>
    <path d="M32,20c0-1.45,0-2.64-.12-3.8h2.27l.14,2.32h.06A5.16,5.16,0,0,1,39,15.87c1.94,0,5,1.16,5,6v8.39H41.4v-8.1c0-2.26-.84-4.15-3.25-4.15a3.62,3.62,0,0,0-3.42,2.62,3.49,3.49,0,0,0-.18,1.18v8.45H32Z"/>
    <path class="cls-1" d="M50.44,12.82H44.5V10.67H59v2.15H53V30.23H50.44Z"/>
    <path class="cls-1" d="M60.85,9.63h2.56v8.76h.06a4.77,4.77,0,0,1,1.82-1.8,5.34,5.34,0,0,1,2.61-.72c1.89,0,4.91,1.16,4.91,6v8.36H70.25V22.16C70.25,19.9,69.41,18,67,18a3.68,3.68,0,0,0-3.42,2.56,3.18,3.18,0,0,0-.17,1.22v8.47H60.85Z"/>
    <path class="cls-1" d="M89.65,23.09c0,5.19-3.59,7.45-7,7.45-3.8,0-6.73-2.78-6.73-7.22,0-4.7,3.08-7.45,7-7.45S89.65,18.8,89.65,23.09Zm-11.13.14c0,3.08,1.77,5.4,4.26,5.4S87,26.34,87,23.18c0-2.38-1.19-5.4-4.2-5.4S78.52,20.57,78.52,23.23Z"/>
    <path class="cls-1" d="M104.62,26.4c0,1.45,0,2.72.11,3.83h-2.26l-.14-2.3h-.06a5.27,5.27,0,0,1-4.64,2.61c-2.21,0-4.85-1.21-4.85-6.15v-8.2h2.56V24c0,2.67.81,4.47,3.13,4.47a3.68,3.68,0,0,0,3.36-2.32,3.64,3.64,0,0,0,.24-1.31V16.19h2.55Z"/>
    <path class="cls-1" d="M108.5,27.62a6.72,6.72,0,0,0,3.37,1c1.85,0,2.72-.93,2.72-2.09S113.87,24.66,112,24c-2.52-.9-3.71-2.29-3.71-4,0-2.27,1.83-4.12,4.84-4.12a6.93,6.93,0,0,1,3.45.87l-.63,1.85a5.56,5.56,0,0,0-2.88-.81c-1.5,0-2.34.87-2.34,1.92s.84,1.68,2.66,2.37c2.44.93,3.69,2.15,3.69,4.24,0,2.47-1.92,4.21-5.25,4.21a8,8,0,0,1-4-1Z"/>
    <path class="cls-1" d="M128.11,30.23l-.21-1.77h-.08a5.26,5.26,0,0,1-4.3,2.08,4,4,0,0,1-4.29-4c0-3.39,3-5.25,8.44-5.22V21c0-1.16-.32-3.25-3.19-3.25a6.94,6.94,0,0,0-3.65,1.05l-.58-1.69a8.74,8.74,0,0,1,4.61-1.24c4.29,0,5.33,2.93,5.33,5.74v5.25a19.19,19.19,0,0,0,.24,3.37Zm-.38-7.17c-2.79-.06-6,.44-6,3.16a2.26,2.26,0,0,0,2.41,2.44,3.48,3.48,0,0,0,3.39-2.35,2.57,2.57,0,0,0,.15-.81Z"/>
    <path class="cls-1" d="M134.31,20c0-1.45,0-2.64-.12-3.8h2.27l.14,2.32h.06a5.16,5.16,0,0,1,4.64-2.64c1.94,0,5,1.16,5,6v8.39h-2.55v-8.1c0-2.26-.84-4.15-3.25-4.15A3.62,3.62,0,0,0,137,20.6a3.49,3.49,0,0,0-.18,1.18v8.45h-2.55Z"/>
    <path class="cls-1" d="M162.53,9.63v17c0,1.25,0,2.67.12,3.63h-2.3l-.11-2.44h-.06a5.18,5.18,0,0,1-4.79,2.75c-3.39,0-6-2.87-6-7.13,0-4.67,2.87-7.54,6.29-7.54A4.7,4.7,0,0,1,159.92,18H160V9.63ZM160,21.9a4.34,4.34,0,0,0-.12-1.07,3.75,3.75,0,0,0-3.68-3c-2.64,0-4.21,2.32-4.21,5.42,0,2.85,1.39,5.2,4.15,5.2a3.84,3.84,0,0,0,3.74-3,4.32,4.32,0,0,0,.12-1.1Z"/>
    <path class="cls-1" d="M166.41,27.62a6.75,6.75,0,0,0,3.37,1c1.85,0,2.72-.93,2.72-2.09s-.72-1.88-2.61-2.58c-2.52-.9-3.71-2.29-3.71-4,0-2.27,1.83-4.12,4.84-4.12a7,7,0,0,1,3.46.87l-.64,1.85a5.55,5.55,0,0,0-2.87-.81c-1.51,0-2.35.87-2.35,1.92s.84,1.68,2.67,2.37c2.43.93,3.68,2.15,3.68,4.24,0,2.47-1.92,4.21-5.25,4.21a8,8,0,0,1-3.95-1Z"/>
  </g>
</svg>
